<?xml version="1.0" encoding="utf-8"?>
<!-- Generator: Adobe Illustrator 24.0.3, SVG Export Plug-In . SVG Version: 6.00 Build 0)  -->
<svg version="1.1" id="Layer_1" xmlns="http://www.w3.org/2000/svg" xmlns:xlink="http://www.w3.org/1999/xlink" x="0px" y="0px"
	 viewBox="0 0 42 42" style="enable-background:new 0 0 42 42;" xml:space="preserve">
<style type="text/css">
	.st0{fill:none;stroke:#FFFFFF;stroke-width:4;stroke-miterlimit:10;}
	.st1{fill:#FFFFFF;}
</style>
<line class="st0" x1="21" y1="3.21" x2="21" y2="39.08"/>
<line class="st0" x1="2.96" y1="21" x2="39.14" y2="21"/>
<rect x="16.3" y="-0.29" transform="matrix(0.7071 0.7071 -0.7071 0.7071 9.298 -11.3581)" class="st1" width="4.11" height="11.67"/>
<rect x="3.52" y="12.5" transform="matrix(0.7071 0.7071 -0.7071 0.7071 14.5955 1.4311)" class="st1" width="4.11" height="11.67"/>
<rect x="34.37" y="17.8" transform="matrix(0.7071 0.7071 -0.7071 0.7071 27.3787 -18.8323)" class="st1" width="4.11" height="11.67"/>
<rect x="21.69" y="30.59" transform="matrix(0.7071 0.7071 -0.7071 0.7071 32.7101 -6.1251)" class="st1" width="4.11" height="11.67"/>
<rect x="3.52" y="17.85" transform="matrix(0.7071 -0.7071 0.7071 0.7071 -15.1121 10.8742)" class="st1" width="4.11" height="11.67"/>
<rect x="16.35" y="30.59" transform="matrix(0.7071 -0.7071 0.7071 0.7071 -20.3645 23.6797)" class="st1" width="4.11" height="11.67"/>
<rect x="21.65" y="-0.26" transform="matrix(0.7071 -0.7071 0.7071 0.7071 3.0003 18.3915)" class="st1" width="4.11" height="11.67"/>
<rect x="34.37" y="12.46" transform="matrix(0.7071 -0.7071 0.7071 0.7071 -2.2651 31.1105)" class="st1" width="4.11" height="11.67"/>
</svg>
